<svg xmlns="http://www.w3.org/2000/svg" viewBox="0 0 283.23859 89.92779"><defs><style>.cls-1{fill:#0f464a;}.cls-2{fill:#62a8d4;}</style></defs><g id="isallo_body" data-name="isallo body"><path class="cls-1" d="M296.09778,329.13184a5.35568,5.35568,0,0,1-5.5083-5.50782V275.56348a5.29987,5.29987,0,0,1,1.56641-3.9961,5.48476,5.48476,0,0,1,9.4497,3.9961V323.624a5.44636,5.44636,0,0,1-1.51172,3.94141A5.30063,5.30063,0,0,1,296.09778,329.13184Z" transform="translate(-286.46905 -239.63568)"/><path class="cls-1" d="M341.61634,329.56348a40.83768,40.83768,0,0,1-13.98584-2.32227,26.77778,26.77778,0,0,1-9.99024-5.88574,4.70084,4.70084,0,0,1-1.34961-3.94238,5.18765,5.18765,0,0,1,2.106-3.61719,5.64094,5.64094,0,0,1,4.26562-1.459,5.85589,5.85589,0,0,1,3.61817,1.89063,17.11423,17.11423,0,0,0,5.88623,3.834,22.15943,22.15943,0,0,0,9.01758,1.78125q6.26294,0,9.5581-2.05078a6.35823,6.35823,0,0,0,3.40235-5.293q.1062-3.24023-3.07813-5.61523-3.18676-2.376-11.61035-3.88867-10.90943-2.15919-15.82178-6.48a13.55587,13.55587,0,0,1-4.91406-10.584,13.16947,13.16947,0,0,1,3.24023-9.126,19.65688,19.65688,0,0,1,8.31592-5.39991,31.71706,31.71706,0,0,1,10.584-1.78173,32.96926,32.96926,0,0,1,12.63574,2.26757,21.55872,21.55872,0,0,1,8.748,6.26416,4.9917,4.9917,0,0,1,1.4043,3.61817,4.18868,4.18868,0,0,1-1.83594,3.186,5.29148,5.29148,0,0,1-4.104.75586,7.72293,7.72293,0,0,1-3.99609-1.94385,14.72184,14.72184,0,0,0-5.832-3.564,24.45765,24.45765,0,0,0-7.23584-.97217,18.1049,18.1049,0,0,0-8.04639,1.62012q-3.29517,1.62012-3.29395,4.75195a6.25278,6.25278,0,0,0,1.02588,3.50977,8.61936,8.61936,0,0,0,4.0503,2.8081,51.84742,51.84742,0,0,0,8.856,2.43018,48.16947,48.16947,0,0,1,12.79785,4.104,17.08953,17.08953,0,0,1,6.75,5.77783,14.11285,14.11285,0,0,1,2.05225,7.61426,15.88014,15.88014,0,0,1-2.646,8.96387,18.199,18.199,0,0,1-7.77636,6.37207A30.41533,30.41533,0,0,1,341.61634,329.56348Z" transform="translate(-286.46905 -239.63568)"/><path class="cls-1" d="M403.3927,329.56348a25.99551,25.99551,0,0,1-14.14844-3.94141,28.00551,28.00551,0,0,1-9.88183-10.69336,31.81235,31.81235,0,0,1-3.61817-15.28125,30.01653,30.01653,0,0,1,3.94239-15.33594,29.15759,29.15759,0,0,1,10.69189-10.74609,29.77435,29.77435,0,0,1,40.93213,10.74609,30.0356,30.0356,0,0,1,3.9419,15.33594h-4.21192a31.82914,31.82914,0,0,1-3.61816,15.28125,28.02809,28.02809,0,0,1-9.88184,10.69336A26.00323,26.00323,0,0,1,403.3927,329.56348Zm2.15967-9.72071a18.43061,18.43061,0,0,0,9.82813-2.6455,18.8152,18.8152,0,0,0,6.80419-7.23536,21.3272,21.3272,0,0,0,2.48389-10.31445,21.55354,21.55354,0,0,0-2.48389-10.42187,18.84182,18.84182,0,0,0-6.80419-7.23633,19.47484,19.47484,0,0,0-19.60206,0,19.08611,19.08611,0,0,0-6.9121,7.23633,21.17213,21.17213,0,0,0-2.53809,10.42187,20.95092,20.95092,0,0,0,2.53809,10.31445,19.059,19.059,0,0,0,6.9121,7.23536A18.50539,18.50539,0,0,0,405.55237,319.84277Zm24.19189,9.39649a5.3549,5.3549,0,0,1-5.50781-5.50781V307.208l2.05225-11.44873,8.96387,3.88818v24.084a5.35492,5.35492,0,0,1-5.50831,5.50781Z" transform="translate(-286.46905 -239.63568)"/><path class="cls-1" d="M465.70667,329.13184a14.2418,14.2418,0,0,1-8.42383-2.5918,17.19294,17.19294,0,0,1-5.72363-7.07422,24.51371,24.51371,0,0,1-2.05274-10.31445V250.18311a5.40212,5.40212,0,1,1,10.80078,0v58.96826a12.92263,12.92263,0,0,0,1.51172,6.58789,4.44862,4.44862,0,0,0,3.8877,2.59179h2.70019a4.48977,4.48977,0,0,1,3.50977,1.51172,5.62778,5.62778,0,0,1,1.35058,3.88868,4.633,4.633,0,0,1-2.05273,3.88769,8.69017,8.69017,0,0,1-5.292,1.5127Z" transform="translate(-286.46905 -239.63568)"/><path class="cls-1" d="M498.1051,329.13184a14.24179,14.24179,0,0,1-8.42382-2.5918,17.19288,17.19288,0,0,1-5.72364-7.07422,24.51371,24.51371,0,0,1-2.05273-10.31445V250.18311a5.40212,5.40212,0,1,1,10.80078,0v58.96826a12.92263,12.92263,0,0,0,1.51172,6.58789,4.44862,4.44862,0,0,0,3.88769,2.59179h2.7002a4.4898,4.4898,0,0,1,3.50977,1.51172,5.62778,5.62778,0,0,1,1.35058,3.88868,4.633,4.633,0,0,1-2.05273,3.88769,8.6902,8.6902,0,0,1-5.292,1.5127Z" transform="translate(-286.46905 -239.63568)"/><path class="cls-1" d="M540.00745,329.56348a30.523,30.523,0,0,1-15.44434-3.834,27.76394,27.76394,0,0,1-10.52929-10.584,33.45885,33.45885,0,0,1,0-31.104,27.78084,27.78084,0,0,1,10.52929-10.584,32.80576,32.80576,0,0,1,30.78028,0,27.80383,27.80383,0,0,1,10.53027,10.584,33.66877,33.66877,0,0,1,.05371,31.104,27.40537,27.40537,0,0,1-10.47559,10.584A30.528,30.528,0,0,1,540.00745,329.56348Zm0-9.72071A18.93564,18.93564,0,0,0,549.944,317.251a18.13158,18.13158,0,0,0,6.75-7.127,21.86,21.86,0,0,0,2.42969-10.47656,22.18443,22.18443,0,0,0-2.42969-10.53027,18.0467,18.0467,0,0,0-6.75-7.18164,20.33815,20.33815,0,0,0-19.87207,0,18.418,18.418,0,0,0-6.80469,7.18164,21.76732,21.76732,0,0,0-2.48339,10.53027,21.45028,21.45028,0,0,0,2.48339,10.47656,18.50964,18.50964,0,0,0,6.80469,7.127A18.92481,18.92481,0,0,0,540.00745,319.84277Z" transform="translate(-286.46905 -239.63568)"/></g><g id="i_dot" data-name="i dot"><circle class="cls-2" cx="9.50727" cy="9.50727" r="9.50727"/></g></svg>